<svg width="488" height="138" viewBox="0 0 488 138" fill="none" xmlns="http://www.w3.org/2000/svg">
<path d="M49.3971 114.173C51.8209 110.465 61.7287 97.5275 64.7478 93.9035C64.8326 93.8194 64.8326 93.7349 64.8326 93.6084C64.8326 92.6814 63.4295 90.5322 61.8562 90.5322C61.5161 90.5322 61.2184 90.6167 60.8783 90.8273C59.1771 91.965 36.343 122.054 35.6201 130.355V130.819C35.6201 134.485 39.4045 137.477 40.7653 137.477C47.1009 137.477 53.0541 122.939 53.0541 117.629C53.0965 115.69 51.1407 114.426 49.3971 114.173ZM49.6525 117.924C48.8444 125.593 41.9134 135.117 39.9572 135.117C39.2771 135.117 39.1068 134.021 39.1068 133.558C39.1068 129.049 46.8883 117.376 47.7387 117.165C47.8238 117.123 47.9089 117.123 48.0364 117.123C48.6742 117.123 49.6525 117.418 49.6525 117.881V117.924Z" fill="#FF4027"/>
<path d="M72.4792 105.914C72.4792 102.753 70.6509 102.669 69.3749 101.531C68.9073 101.11 67.8867 99.9719 66.4836 99.9719C66.1859 99.9719 65.8458 100.014 65.463 100.183C62.6992 101.278 55.2578 108.189 55.2578 113.92C55.2578 116.028 57.0437 117.334 57.5964 117.924C58.3617 118.767 59.7224 119.905 61.3385 119.905C65.5481 119.905 72.309 110.886 72.4792 106.251V105.914ZM60.7854 117.207C59.6377 117.207 59.1273 116.659 59.1273 115.817C59.1273 112.488 66.3561 104.397 69.1199 104.397C69.6726 104.397 69.9279 104.734 69.9279 105.282C69.9279 108.147 62.8691 117.207 60.7854 117.207Z" fill="#FF4027"/>
<path d="M90.2108 111.181C90.1257 111.181 90.0409 111.224 89.9558 111.308C89.5306 111.813 84.2153 117.292 81.7916 117.292C81.2813 117.292 80.9412 117.081 80.9412 116.533C80.9412 114.089 86.9791 106.715 89.7432 104.397C90.1257 104.06 90.2959 103.596 90.2959 103.091C90.2959 102.121 89.2753 99.7192 88.1699 99.7192C88.0848 99.7192 87.9997 99.7192 87.9146 99.7613C87.2768 99.8454 84.4279 100.436 82.5996 100.436H82.2592C82.7271 99.6769 83.2798 98.5812 83.2798 97.8649C83.2798 97.3591 82.9821 97.2329 82.5145 97.2329C80.1331 97.1909 78.4747 99.8454 77.3266 101.573C76.9865 102.079 76.9014 102.627 76.9014 103.091C76.9014 103.638 77.0289 104.102 77.0289 104.481C77.0289 104.565 76.9865 104.65 76.9865 104.734C76.7739 105.324 70.4807 114.805 69.1199 116.449C68.7798 116.828 68.6523 117.207 68.6523 117.544C68.6523 118.135 69.205 118.556 69.7577 118.556C70.0978 118.556 70.4807 118.429 70.7356 118.092C73.2445 115.227 79.5804 104.692 79.8781 104.734C80.3457 104.818 82.1317 104.818 83.3649 104.818C80.8984 107.515 76.8163 111.813 76.8163 115.69C76.8163 118.261 79.3251 120.115 81.0686 120.115C83.7477 120.115 88.6375 115.732 90.0833 113.036C90.381 112.53 90.5085 112.066 90.5085 111.729C90.5085 111.392 90.381 111.181 90.2108 111.181Z" fill="#FF4027"/>
<path d="M24.5587 59.8985C24.1452 58.9539 23.9388 57.8909 23.9388 56.7098C23.9978 56.1193 24.0568 55.5291 24.1159 54.9386H40.5021C41.0927 56.6508 41.3881 58.2747 41.3881 59.8101C41.3881 61.8768 40.9156 63.6187 39.9706 65.0361C39.026 66.4533 37.9336 67.6046 36.6936 68.4906H62.2918L68.2264 64.5046C67.2814 63.7371 66.3958 62.4673 65.5689 60.6958C64.8013 58.9242 63.886 56.5034 62.8233 53.4328L61.5832 49.9783L42.9823 0.730469H30.2275L22.61 4.53936L6.66657 52.2811C4.42252 59.0719 2.20814 64.475 0.0234375 68.4906H21.1042L28.2789 64.5046C27.6883 63.9141 27.0388 63.2349 26.3302 62.4673C25.6217 61.6997 25.0311 60.8435 24.5587 59.8985ZM32.8847 23.7599L36.7819 40.3235H27.836L32.8847 23.7599Z" fill="#FF4027"/>
<path d="M265.151 4.62772C265.8 5.45432 266.125 6.93047 266.125 9.05648C266.125 12.4222 265.357 17.5892 263.822 24.5571L255.673 0.730469H248.676L242.83 4.36197L236.895 26.063L236.807 25.7088C234.504 17.2058 233.352 10.6807 233.352 6.13387C233.352 3.65374 233.736 1.85282 234.504 0.730795H209.88L205.905 3.40266C206.116 2.06705 206.248 1.17165 206.297 0.730795H156.075L151.548 4.00427C152.069 2.74659 152.7 1.65294 153.444 0.730795H131.743L125.632 3.74243C129.411 6.51766 131.301 12.2752 131.301 21.0146V30.5807L109.334 0.730469L92.8588 0.818835L87.6328 3.74178C89.6998 6.33995 91.0579 8.99714 91.7075 11.7137C92.416 14.3709 92.7701 17.4709 92.7701 21.014C92.7701 22.8446 92.7408 24.2324 92.6818 25.177L92.5931 30.0486V54.0526C92.5931 59.1899 91.235 64.0025 88.5188 68.4906H109.334L115.889 64.593C114.412 62.9988 113.349 61.1386 112.7 59.0129C112.109 56.8282 111.814 54.0823 111.814 50.7756V38.729L134.578 68.4906H204.254L211.606 64.5046H211.695L209.038 46.7896L208.949 46.4352C207.118 48.7973 203.723 50.8049 198.763 52.4584C193.862 54.0526 189.791 54.8499 184.595 54.8499H177.333V41.5636C181.702 42.1541 184.95 42.9514 187.076 43.955L193.719 40.4122V23.6712C192.066 25.1473 189.91 26.0626 187.253 26.4171C184.596 26.7715 181.791 26.9486 178.838 26.9486H177.333V14.6366C181.998 14.6366 185.629 15.1384 188.227 16.1424C190.885 17.1464 193.808 19.036 196.996 21.8113L202.577 18.1797V17.914C203.344 15.7293 203.994 13.3672 204.525 10.828C204.979 8.83247 205.327 7.08307 205.571 5.57497C207.215 7.57512 208.74 10.2701 210.146 13.6623C211.917 17.7366 213.984 23.5531 216.346 31.1116L227.861 68.4906H236.01L241.058 64.5046L247.436 41.0321L255.673 68.4906H263.556L268.871 64.5046L279.323 30.4917C282.275 20.8666 284.637 13.7807 286.409 9.23354C288.18 4.62772 289.597 1.79315 290.66 0.730469H270.82L265.151 4.62772ZM155.543 53.5211C155.189 57.3594 154.687 60.312 154.037 62.3786C153.812 63.0748 153.549 63.7742 153.253 64.4776C152.021 62.182 151.11 59.7113 150.521 57.0646C149.99 54.4074 149.724 50.7759 149.724 46.1697V15.5226C149.724 11.5562 150.15 8.22955 150.996 5.53226C152.096 6.66439 152.994 8.1601 153.683 10.0311C154.51 12.2158 155.1 15.4635 155.455 19.7743C155.868 24.085 156.075 29.9605 156.075 37.4009C156.075 44.2508 155.897 49.6239 155.543 53.5211Z" fill="#FF4027"/>
<path d="M484.278 60.6958C483.511 58.9242 482.595 56.5034 481.532 53.4328L480.293 49.9783L461.69 0.730469H448.938L441.32 4.53936L425.375 52.2814C425.107 53.0946 424.839 53.8867 424.571 54.6601C424.184 54.725 423.825 54.7615 423.504 54.7615C422.265 54.7615 421.202 54.4367 420.315 53.7872C419.431 53.0786 418.749 52.3401 418.277 51.5728C417.866 50.7462 417.038 49.1224 415.798 46.7012C414.559 44.1621 413.346 42.2725 412.166 41.0324C410.986 39.7924 409.479 38.7294 407.65 37.8437C409.835 37.0762 412.078 35.7771 414.38 33.9465C416.744 32.0569 418.691 29.9312 420.227 27.5691C421.762 25.207 422.529 22.9336 422.529 20.7489C422.529 14.3715 420.344 9.44092 415.975 5.95681C411.605 2.47269 404.49 0.730795 394.63 0.730795H368.41L364.512 2.91028C364.679 1.84532 364.784 1.11524 364.826 0.730795H314.605L308.848 4.8938C310.265 6.07485 311.387 7.7874 312.213 10.0311C313.04 12.2158 313.631 15.4635 313.985 19.7743C314.398 24.085 314.605 29.9605 314.605 37.4009C314.605 44.2508 314.428 49.6242 314.073 53.5214C313.719 57.3597 313.217 60.3123 312.568 62.379C311.918 64.3869 310.973 66.4239 309.733 68.4909H387.544L393.387 64.505C391.558 62.6744 390.348 60.3713 389.758 57.5961C389.227 54.7615 388.959 50.5101 388.959 44.8413C390.495 45.4909 391.763 46.6422 392.768 48.2958C393.772 49.8899 394.864 52.193 396.045 55.2046C397.287 58.3933 398.468 60.9915 399.589 62.9992C400.711 65.0068 402.305 66.7193 404.373 68.1365C406.437 69.5536 409.036 70.2622 412.166 70.2622C414.465 70.2622 417.029 68.9406 419.857 66.3056C419.481 67.0735 419.107 67.8042 418.733 68.4909H439.814L446.987 64.505C446.397 63.9144 445.748 63.2352 445.037 62.4677C444.33 61.7001 443.74 60.8438 443.267 59.8988C442.853 58.9542 442.647 57.8912 442.647 56.7101C442.706 56.1196 442.765 55.5294 442.823 54.9389H459.212C459.802 56.6511 460.096 58.275 460.096 59.8105C460.096 61.8771 459.623 63.619 458.68 65.0365C457.735 66.4536 456.642 67.605 455.403 68.4909H481L486.935 64.505C485.989 63.7374 485.106 62.4677 484.277 60.6961L484.278 60.6958ZM365.713 64.5046L363.056 46.7896L362.968 46.4352C361.135 48.7973 357.741 50.8049 352.781 52.4584C347.88 54.0526 342.829 54.8499 337.635 54.8499H335.864V41.5636C340.234 42.1541 343.481 42.9514 345.607 43.955L352.25 40.4122V23.6712C350.596 25.1473 348.441 26.0626 345.784 26.4171C343.126 26.7715 340.322 26.9486 337.368 26.9486H335.864V14.6366C340.527 14.6366 344.159 15.1384 346.759 16.1424C349.416 17.1464 352.338 19.036 355.527 21.8113L361.106 18.1797V17.914C361.875 15.7293 362.524 13.3672 363.056 10.828C363.599 8.43857 363.991 6.40288 364.233 4.71283C365.227 5.85801 365.971 7.18742 366.46 8.70236C367.171 10.651 367.644 13.6626 367.878 17.7369C368.175 21.8116 368.322 28.1299 368.322 36.692C368.322 44.3095 368.205 49.9783 367.966 53.6985C367.79 57.3594 367.376 60.2826 366.727 62.4673C366.539 63.1651 366.306 63.843 366.04 64.5046H365.713ZM400.385 31.289C398.614 31.7611 396.756 31.9975 394.806 31.9975H388.783V15.5226C392.915 15.5816 396.074 16.4085 398.259 18.0027C400.444 19.5972 401.536 21.7819 401.536 24.5575C401.536 27.333 401.154 29.5764 400.385 31.289ZM446.544 40.3235L451.595 23.7599L455.492 40.3235H446.544Z" fill="#FF4027"/>
<path d="M148.511 109.204H161.222V104.205H148.511V98.3469H163.793V93.3472H141.365V120.491H165.368V115.345H148.511V109.204Z" fill="#F5F3FD"/>
<path d="M128.942 110.063H128.795L116.085 93.3472H109.227V120.491H116.226V103.205H116.514L129.083 120.491H135.941V93.3472H128.942V110.063Z" fill="#F5F3FD"/>
<path d="M197.507 111.921H197.077L191.219 93.3472H185.649L179.937 111.921H179.508L173.938 93.3472H167.08L175.65 120.491H183.22L188.366 103.922H188.649L193.936 120.491H201.218L209.793 93.3472H202.935L197.507 111.921Z" fill="#F5F3FD"/>
<path d="M396.493 98.6345H405.633V120.491H412.921V98.6345H422.061V93.3472H396.493V98.6345Z" fill="#F5F3FD"/>
<path d="M392.348 93.3472H385.207V120.486H392.348V93.3472Z" fill="#F5F3FD"/>
<path d="M366.921 115.492C361.349 115.492 359.92 112.063 359.92 106.922V106.78C359.92 99.6394 362.633 98.2102 366.921 98.2102H367.061C371.633 98.2102 373.061 99.9221 373.919 103.497L380.776 102.21C379.778 94.352 372.35 92.9229 367.068 92.9229H366.778C357.351 92.9229 352.779 97.3516 352.779 106.78V106.922C352.779 118.35 359.493 120.779 366.778 120.779H366.921C375.921 120.779 378.918 118.779 381.06 111.209L374.202 109.921C373.061 113.35 372.631 115.492 366.915 115.492H366.921Z" fill="#F5F3FD"/>
<path d="M438.918 104.922H438.347L432.061 93.3472H424.202L435.06 111.775V120.491H442.202V111.775L453.057 93.3472H445.201L438.918 104.922Z" fill="#F5F3FD"/>
<path d="M241.643 93.3472L235.502 104.922H234.79L228.503 93.3472H220.646L231.503 111.775V120.491H238.644V111.775L249.501 93.3472H241.643Z" fill="#F5F3FD"/>
<path d="M264.359 92.9229H263.93C255.501 92.9229 249.502 96.6346 249.502 106.634V106.922C249.502 117.208 255.643 120.779 263.789 120.779H264.218C273.929 120.779 278.216 116.921 278.216 106.922V106.634C278.216 95.7763 272.217 92.9229 264.359 92.9229ZM264.218 115.492H263.93C259.789 115.492 256.643 113.921 256.643 106.922C256.643 99.9224 259.501 98.2102 263.93 98.2102H264.218C268.359 98.2102 271.076 99.4978 271.076 106.922C271.076 112.209 269.788 115.492 264.218 115.492Z" fill="#F5F3FD"/>
<path d="M308.496 102.493V102.205C308.496 94.0642 302.496 93.3472 295.497 93.3472H282.64V120.345H289.639V111.487H297.209L301.209 120.345H308.92L303.779 110.058C307.208 108.917 308.491 105.771 308.491 102.488L308.496 102.493ZM301.214 102.776C301.214 106.346 298.502 106.205 295.644 106.205H289.785V98.6345H295.644C298.502 98.776 301.214 98.9224 301.214 102.205V102.776Z" fill="#F5F3FD"/>
<path d="M331.783 93.3472L321.212 104.346H320.924V93.3472H313.783V120.35H320.924V112.063L323.782 109.346L331.923 120.35H340.639L329.21 105.063L340.779 93.3472H331.783Z" fill="#F5F3FD"/>
<path d="M148.511 109.204H161.222V104.205H148.511V98.3469H163.793V93.3472H141.365V120.491H165.368V115.345H148.511V109.204Z" fill="#F5F3FD"/>
<path d="M128.942 110.063H128.795L116.085 93.3472H109.227V120.491H116.226V103.205H116.514L129.083 120.491H135.941V93.3472H128.942V110.063Z" fill="#F5F3FD"/>
<path d="M197.507 111.921H197.077L191.219 93.3472H185.649L179.937 111.921H179.508L173.938 93.3472H167.08L175.65 120.491H183.22L188.366 103.922H188.649L193.936 120.491H201.218L209.793 93.3472H202.935L197.507 111.921Z" fill="#F5F3FD"/>
<path d="M396.493 98.6345H405.633V120.491H412.921V98.6345H422.061V93.3472H396.493V98.6345Z" fill="#F5F3FD"/>
<path d="M392.348 93.3472H385.207V120.486H392.348V93.3472Z" fill="#F5F3FD"/>
<path d="M366.921 115.492C361.349 115.492 359.92 112.063 359.92 106.922V106.78C359.92 99.6394 362.633 98.2102 366.921 98.2102H367.061C371.633 98.2102 373.061 99.9221 373.919 103.497L380.776 102.21C379.778 94.352 372.35 92.9229 367.068 92.9229H366.778C357.351 92.9229 352.779 97.3516 352.779 106.78V106.922C352.779 118.35 359.493 120.779 366.778 120.779H366.921C375.921 120.779 378.918 118.779 381.06 111.209L374.202 109.921C373.061 113.35 372.631 115.492 366.915 115.492H366.921Z" fill="#F5F3FD"/>
<path d="M438.918 104.922H438.347L432.061 93.3472H424.202L435.06 111.775V120.491H442.202V111.775L453.057 93.3472H445.201L438.918 104.922Z" fill="#F5F3FD"/>
<path d="M241.643 93.3472L235.502 104.922H234.79L228.503 93.3472H220.646L231.503 111.775V120.491H238.644V111.775L249.501 93.3472H241.643Z" fill="#F5F3FD"/>
<path d="M264.359 92.9229H263.93C255.501 92.9229 249.502 96.6346 249.502 106.634V106.922C249.502 117.208 255.643 120.779 263.789 120.779H264.218C273.929 120.779 278.216 116.921 278.216 106.922V106.634C278.216 95.7763 272.217 92.9229 264.359 92.9229ZM264.218 115.492H263.93C259.789 115.492 256.643 113.921 256.643 106.922C256.643 99.9224 259.501 98.2102 263.93 98.2102H264.218C268.359 98.2102 271.076 99.4978 271.076 106.922C271.076 112.209 269.788 115.492 264.218 115.492Z" fill="#F5F3FD"/>
<path d="M308.496 102.493V102.205C308.496 94.0642 302.496 93.3472 295.497 93.3472H282.64V120.345H289.639V111.487H297.209L301.209 120.345H308.92L303.779 110.058C307.208 108.917 308.491 105.771 308.491 102.488L308.496 102.493ZM301.214 102.776C301.214 106.346 298.502 106.205 295.644 106.205H289.785V98.6345H295.644C298.502 98.776 301.214 98.9224 301.214 102.205V102.776Z" fill="#F5F3FD"/>
<path d="M331.783 93.3472L321.212 104.346H320.924V93.3472H313.783V120.35H320.924V112.063L323.782 109.346L331.923 120.35H340.639L329.21 105.063L340.779 93.3472H331.783Z" fill="#F5F3FD"/>
<path d="M6.13477 64.5046C6.54823 63.6777 7.05006 62.7624 7.64058 61.7588C8.23111 60.6958 8.85097 59.3967 9.50084 57.8615C10.2094 56.326 10.977 54.348 11.8039 51.9269L29.9614 0.730469H43.0706L61.6713 49.9783L62.9114 53.4328C63.9744 56.5034 64.8897 58.9242 65.6572 60.6958C66.4838 62.4673 67.3698 63.7371 68.3144 64.5046H44.5765C46.2887 63.0872 47.145 61.1386 47.145 58.6584C47.145 56.7098 46.6728 54.289 45.7278 51.3954H25.8871C25.4737 53.226 25.2672 54.9386 25.2672 56.5327C25.2672 58.4224 25.533 59.9578 26.0645 61.1386C26.655 62.3196 27.4523 63.4416 28.4559 64.5046H6.13477ZM42.0076 40.3235L35.4532 17.1167L28.2786 40.3235H42.0076Z" fill="#F5F3FD"/>
<path d="M94.5421 64.5046C95.7231 62.4377 96.6681 60.371 97.3766 58.3043C98.0852 56.1786 98.4393 53.6688 98.4393 50.7756V20.8369C98.4393 15.5226 98.0262 11.3889 97.1993 8.43629C96.3727 5.484 94.8965 2.91517 92.7705 0.730469H109.334L136.35 37.0462V15.5226C136.35 12.1568 136.084 9.41092 135.553 7.28524C135.08 5.15923 133.81 2.97452 131.744 0.730469H153.356C152.057 3.09256 151.142 5.45433 150.61 7.81642C150.079 10.1785 149.813 12.747 149.813 15.5226V46.1694C149.813 50.6572 150.079 54.0823 150.61 56.4441C151.142 58.8061 152.057 61.493 153.356 64.5046H138.918L111.814 29.3403V50.7756C111.814 54.0823 112.11 56.8282 112.7 59.0129C113.35 61.1386 114.412 62.9692 115.889 64.5046H94.5421Z" fill="#F5F3FD"/>
<path d="M177.421 37.7547V54.4071H184.594C189.909 54.4071 194.038 53.6688 198.939 52.1927C203.9 50.6572 207.265 48.7382 209.037 46.4352L211.783 64.5046H156.96C158.377 62.615 159.41 60.6367 160.06 58.5701C160.71 56.5034 161.153 53.6098 161.389 49.8896C161.625 46.1694 161.743 40.6186 161.743 33.2376C161.743 25.2067 161.595 19.1541 161.3 15.0794C161.064 11.0051 160.532 7.87544 159.706 5.6904C158.938 3.5057 157.727 1.85249 156.074 0.730469H206.385C206.326 1.26197 206.149 2.44302 205.853 4.27361C205.617 6.10419 205.204 8.31857 204.613 10.9167C204.023 13.5149 203.344 15.936 202.576 18.1797C200.569 15.8767 198.295 14.1645 195.756 13.0424C193.276 11.9204 190.737 11.2118 188.138 10.9167C185.54 10.6213 182.44 10.4739 178.838 10.4739H177.421V26.9489H178.838C181.79 26.9489 184.595 26.7718 187.253 26.4174C189.969 26.063 192.154 25.1477 193.807 23.6715V40.4122C191.799 39.4673 189.378 38.7884 186.544 38.3749C183.709 37.9614 181.229 37.7547 179.104 37.7547H177.421Z" fill="#F5F3FD"/>
<path d="M220.775 27.2143C218.472 19.833 216.464 14.0758 214.751 9.9421C213.098 5.74975 211.474 2.6791 209.88 0.730469H234.504C233.736 1.85249 233.352 3.65341 233.352 6.13354C233.352 10.6803 234.504 17.2054 236.807 25.7085L238.756 33.0602L248.676 0.730469H255.673L266.745 33.0602L268.694 26.5058C270.997 18.5929 272.148 12.2155 272.148 7.37361C272.148 4.36197 271.705 2.14759 270.82 0.730469H290.661C288.476 2.91517 284.667 12.8357 279.234 30.4917L268.871 64.5046H259.836L250.004 31.5547L241.058 64.5046H232.289L220.775 27.2143Z" fill="#F5F3FD"/>
<path d="M335.952 37.7548V54.4072H337.635C342.95 54.4072 348.056 53.6689 352.957 52.1928C357.916 50.6573 361.285 48.7383 363.055 46.4353L365.801 64.5047H315.49C316.908 62.6151 317.941 60.6368 318.59 58.5702C319.24 56.5035 319.683 53.6099 319.919 49.8897C320.155 46.1695 320.273 40.6187 320.273 33.2377C320.273 25.2068 320.126 19.1541 319.831 15.0795C319.594 11.0052 319.063 7.87552 318.236 5.69049C317.468 3.50545 316.258 1.85225 314.604 0.730225H364.914C364.855 1.26173 364.679 2.44277 364.383 4.27336C364.148 6.10395 363.734 8.31833 363.143 10.9165C362.553 13.5147 361.875 15.9358 361.105 18.1795C359.1 15.8764 356.824 14.1642 354.287 13.0422C351.806 11.9202 349.266 11.2116 346.67 10.9165C344.071 10.6211 340.97 10.4737 337.367 10.4737H335.952V26.9487H337.367C340.321 26.9487 343.126 26.7716 345.783 26.4172C348.499 26.0627 350.684 25.1474 352.337 23.6713V40.412C350.329 39.467 347.909 38.7881 345.076 38.3747C342.239 37.9612 339.761 37.7545 337.635 37.7545L335.952 37.7548Z" fill="#F5F3FD"/>
<path d="M369.297 64.5047C370.712 62.6151 371.746 60.6368 372.395 58.5702C373.047 56.5035 373.487 53.6099 373.725 49.8897C373.96 46.1695 374.081 40.6187 374.081 33.2377C374.081 25.2068 373.931 19.1541 373.637 15.0795C373.399 11.0052 372.868 7.87552 372.043 5.69049C371.273 3.50545 370.063 1.85225 368.41 0.730225H394.63C404.608 0.730225 411.781 2.44277 416.151 5.86754C420.524 9.29232 422.708 14.2526 422.708 20.7483C422.708 24.7636 421.319 28.2181 418.544 31.1117C415.828 33.9462 412.254 36.1606 407.826 37.7548C409.597 38.6998 411.074 39.7921 412.254 41.0322C413.435 42.2722 414.648 44.1619 415.887 46.701C417.246 49.3582 418.101 51.0411 418.456 51.75C418.87 52.3995 419.49 53.0784 420.315 53.787C421.202 54.4365 422.265 54.7613 423.504 54.7613C424.035 54.7613 424.655 54.6729 425.366 54.4955C424.655 58.8062 423.592 61.9359 422.177 63.8845C420.817 65.8332 418.574 66.8075 415.443 66.8075C412.786 66.8075 410.572 66.0696 408.801 64.5931C407.089 63.176 405.729 61.4634 404.725 59.4558C403.783 57.4481 402.779 54.8203 401.716 51.5726C400.829 49.0924 400.092 47.1735 399.501 45.8154C398.911 44.3979 398.142 43.2466 397.196 42.3609C396.254 41.416 395.132 40.9435 393.831 40.9435H389.047C389.047 46.1992 389.106 50.0964 389.227 52.6356C389.403 55.1157 389.788 57.2711 390.378 59.1017C391.027 60.9322 392.06 62.7332 393.479 64.5047H369.297ZM394.806 31.6432C398.999 31.6432 402.13 30.6688 404.194 28.7202C406.32 26.7126 407.383 24.1734 407.383 21.1028C407.383 18.0321 406.349 15.611 404.285 13.8394C402.218 12.0679 399.058 11.1823 394.806 11.1823H388.871V31.6432H394.806Z" fill="#F5F3FD"/>
<path d="M424.844 64.5046C425.258 63.6777 425.76 62.7624 426.35 61.7588C426.94 60.6958 427.56 59.3967 428.209 57.8615C428.92 56.326 429.686 54.348 430.514 51.9269L448.67 0.730469H461.778L480.381 49.9783L481.62 53.4328C482.683 56.5034 483.599 58.9242 484.366 60.6958C485.194 62.4673 486.077 63.7371 487.023 64.5046H463.285C464.997 63.0872 465.854 61.1386 465.854 58.6584C465.854 56.7098 465.381 54.289 464.436 51.3954H444.597C444.183 53.226 443.975 54.9386 443.975 56.5327C443.975 58.4224 444.242 59.9578 444.773 61.1386C445.364 62.3196 446.163 63.4416 447.164 64.5046H424.844ZM460.715 40.3235L454.161 17.1167L446.988 40.3235H460.715Z" fill="#F5F3FD"/>
</svg>
